#!OML:ASF X:\für Bonn\!DataBase\2005_08_10_Bjorn_Final\c3d\bjorn.ASF
:FULLY-SPECIFIED
:DEGREES
93
root 0.910687 8.58216 3.78095 -185.144 0.810655 -180.235
lowerback 35.2074 -4.30317 4.26523
upperback 14.6203 1.14272 -2.20664
thorax -1.69234 3.02422 -4.97578
lowerneck -21.3882 -0.235444 3.55424
upperneck -2.24793 -2.05113 -1.86109
head 2.96172 -1.5282 -1.47749
rclavicle 1.19271e-015 -1.17283e-014
rhumerus 82.1993 -4.53824 -59.0451
rradius 19.7885
rwrist 23.5618
rhand -15.0064 11.7198
rfingers 7.12502
rthumb 11.1585 -17.9635
lclavicle 1.19271e-015 -1.17283e-014
lhumerus 85.5454 -1.57399 57.7979
lradius 13.5056
lwrist -35.4877
lhand -32.7637 -10.6803
lfingers 7.12502
lthumb -5.98605 19.2151
rfemur -0.375568 -84.972 -79.1935
rtibia 150.652
rfoot -62.0699 48.1354
rtoes -35.3319
lfemur -79.7751 22.9143 -18.5622
ltibia 152.516
lfoot -37.4569 -12.2361
ltoes -35.3379
94
root 0.911382 8.45392 3.76906 -185.658 0.840588 -180.221
lowerback 35.5795 -4.40762 4.243
upperback 14.8224 1.16982 -2.23659
thorax -1.59756 3.10534 -5.00196
lowerneck -22.0231 -0.256118 3.35809
upperneck -1.36484 -2.03747 -1.82853
head 2.93291 -1.51186 -1.29617
rclavicle 2.90226e-014 -8.54774e-015
rhumerus 81.952 -4.43694 -59.1003
rradius 19.8747
rwrist 23.5913
rhand -15.0223 11.7638
rfingers 7.12502
rthumb 11.1433 -17.9204
lclavicle 2.90226e-014 -8.54774e-015
lhumerus 85.2999 -1.71478 58.0349
lradius 13.4627
lwrist -35.9395
lhand -32.4156 -10.2071
lfingers 7.12502
lthumb -5.65 19.6976
rfemur 36.7056 -82.8383 -117.63
rtibia 151.568
rfoot -65.2249 48.5537
rtoes -35.2479
lfemur -79.6906 22.8379 -18.2038
ltibia 153.433
lfoot -37.7386 -12.0589
ltoes -35.7288
95
root 0.91184 8.34168 3.76064 -186.144 0.860264 -180.188
lowerback 35.9628 -4.51834 4.25046
upperback 14.9907 1.18749 -2.27317
thorax -1.54238 3.17726 -5.04961
lowerneck -22.1963 -0.283627 3.22705
upperneck -1.03142 -2.024 -1.71056
head 3.06302 -1.48476 -1.24134
rclavicle 1.03368e-014 -2.38542e-015
rhumerus 81.6731 -4.33434 -58.8229
rradius 19.9351
rwrist 23.202
rhand -14.9509 11.7207
rfingers 7.12502
rthumb 11.2121 -17.9597
lclavicle 1.03368e-014 -2.38542e-015
lhumerus 85.032 -1.87952 58.2575
lradius 13.3943
lwrist -36.4656
lhand -32.2005 -9.62514
lfingers 7.12502
lthumb -5.4423 20.285
rfemur 50.0945 -79.8443 -132.247
rtibia 152.365
rfoot -67.9258 48.6866
rtoes -35.3107
lfemur -79.5896 22.7343 -17.8617
ltibia 154.225
lfoot -37.9938 -11.8358
ltoes -36.1948
96
root 0.911925 8.2471 3.75662 -186.611 0.879862 -180.174
lowerback 36.3461 -4.61438 4.21228
upperback 15.1517 1.2072 -2.27905
thorax -1.49302 3.24472 -5.04178
lowerneck -22.155 -0.321563 3.03927
upperneck -0.837582 -2.00352 -1.59423
head 3.12053 -1.45512 -1.17409
rclavicle 3.08116e-014 -2.96189e-014
rhumerus 81.4276 -4.21434 -58.3999
rradius 19.9413
rwrist 22.7433
rhand -14.8812 11.6595
rfingers 7.12502
rthumb 11.2793 -18.0172
lclavicle 3.08116e-014 -2.96189e-014
lhumerus 84.7913 -2.02206 58.3891
lradius 13.2334
lwrist -36.8097
lhand -32.1741 -9.11251
lfingers 7.12502
lthumb -5.41684 20.7983
rfemur 54.986 -77.2963 -138.257
rtibia 153.031
rfoot -69.9812 48.7266
rtoes -35.4064
lfemur -79.4626 22.6436 -17.5889
ltibia 154.885
lfoot -38.1314 -11.672
ltoes -36.4907
97
root 0.912211 8.17225 3.75492 -187.021 0.899454 -180.164
lowerback 36.673 -4.71354 4.18701
upperback 15.3163 1.21868 -2.30838
thorax -1.42042 3.30865 -5.06138
lowerneck -21.9992 -0.338147 2.90478
upperneck -0.732512 -1.96726 -1.47966
head 3.13423 -1.41904 -1.11267
rclavicle -8.54774e-015 -2.22639e-014
rhumerus 81.2212 -4.10025 -57.8797
rradius 19.9016
rwrist 22.2872
rhand -14.8228 11.5178
rfingers 7.12502
rthumb 11.3356 -18.1559
lclavicle -8.54774e-015 -2.22639e-014
lhumerus 84.5808 -2.1562 58.3925
lradius 13.0482
lwrist -36.9595
lhand -32.285 -8.68425
lfingers 7.12502
lthumb -5.52388 21.2238
rfemur 56.97 -75.3601 -141.162
rtibia 153.548
rfoot -71.5231 48.7408
rtoes -35.5003
lfemur -79.3488 22.5589 -17.3986
ltibia 155.395
lfoot -38.1747 -11.5002
ltoes -36.7419
98
root 0.911979 8.12011 3.75574 -187.383 0.929075 -180.153
lowerback 36.9813 -4.79649 4.17993
upperback 15.464 1.24717 -2.34141
thorax -1.35699 3.37779 -5.10038
lowerneck -21.6756 -0.365347 2.82074
upperneck -0.704437 -1.9493 -1.37059
head 3.09932 -1.39091 -1.06028
rclavicle -2.20651e-014 1.59028e-015
rhumerus 80.9564 -4.01561 -57.2636
rradius 19.861
rwrist 21.7752
rhand -14.8193 11.3942
rfingers 7.12502
rthumb 11.339 -18.2793
lclavicle -2.20651e-014 1.59028e-015
lhumerus 84.3806 -2.34247 58.2804
lradius 12.896
lwrist -36.7964
lhand -32.4966 -8.33736
lfingers 7.12502
lthumb -5.72821 21.5652
rfemur 57.4591 -74.1128 -142.298
rtibia 153.905
rfoot -72.4064 48.8188
rtoes -35.4275
lfemur -79.1878 22.4905 -17.2771
ltibia 155.757
lfoot -38.2384 -11.0703
ltoes -37.3303
99
root 0.911426 8.08955 3.75812 -187.679 0.948674 -180.144
lowerback 37.2409 -4.87615 4.16059
upperback 15.6027 1.26194 -2.35837
thorax -1.28801 3.43362 -5.11084
lowerneck -20.8496 -0.378407 2.74911
upperneck -1.33224 -1.90138 -1.22413
head 3.20073 -1.34553 -1.10365
rclavicle -2.32578e-014 6.16232e-015
rhumerus 80.7353 -3.88987 -56.68
rradius 19.7806
rwrist 21.4337
rhand -14.8447 11.2636
rfingers 7.12502
rthumb 11.3145 -18.4112
lclavicle -2.32578e-014 6.16232e-015
lhumerus 84.1783 -2.50248 58.0944
lradius 12.7472
lwrist -36.2893
lhand -32.7632 -8.16002
lfingers 7.12502
lthumb -5.98562 21.7354
rfemur 57.3935 -73.3677 -142.618
rtibia 154.104
rfoot -72.8843 48.8882
rtoes -35.362
lfemur -79.0088 22.422 -17.2429
ltibia 155.958
lfoot -38.2355 -10.719
ltoes -37.6689
100
root 0.91062 8.08227 3.76183 -187.88 0.977373 -180.137
lowerback 37.4501 -4.93885 4.14821
upperback 15.7225 1.28104 -2.37262
thorax -1.22225 3.48405 -5.12338
lowerneck -20.2544 -0.363378 2.74658
upperneck -1.46979 -1.83767 -1.21898
head 3.04212 -1.303 -1.08342
rclavicle -1.47101e-014 2.42517e-014
rhumerus 80.5063 -3.76861 -56.2215
rradius 19.7275
rwrist 21.318
rhand -14.838 11.1062
rfingers 7.12502
rthumb 11.321 -18.5683
lclavicle -1.47101e-014 2.42517e-014
lhumerus 83.9908 -2.66755 57.9526
lradius 12.608
lwrist -35.6529
lhand -33.0111 -8.20445
lfingers 7.12502
lthumb -6.22488 21.6841
rfemur 56.7082 -73.3524 -142.024
rtibia 154.144
rfoot -72.7795 49.0785
rtoes -35.1986
lfemur -78.8561 22.3729 -17.2912
ltibia 156.011
lfoot -38.1777 -10.3295
ltoes -37.9954
101
root 0.909801 8.0987 3.76777 -187.986 0.997958 -180.134
lowerback 37.619 -5.00489 4.13895
upperback 15.8332 1.28336 -2.39092
thorax -1.15482 3.5215 -5.13591
lowerneck -19.6843 -0.351666 2.68597
upperneck -1.61981 -1.77216 -1.16105
head 2.88511 -1.25871 -1.03575
rclavicle 2.40529e-014 -6.55989e-015
rhumerus 80.3424 -3.62288 -56.2497
rradius 19.6714
rwrist 21.64
rhand -14.7971 11.0532
rfingers 7.12502
rthumb 11.3604 -18.6191
lclavicle 2.40529e-014 -6.55989e-015
lhumerus 83.7303 -2.82402 57.9462
lradius 12.6181
lwrist -34.9329
lhand -33.1307 -8.47854
lfingers 7.12502
lthumb -6.34038 21.4066
rfemur 55.717 -73.8335 -140.811
rtibia 154.006
rfoot -72.2269 49.2788
rtoes -34.9756
lfemur -78.7182 22.3284 -17.4405
ltibia 155.893
lfoot -38.0027 -10.033
ltoes -38.0353
102
root 0.907883 8.13659 3.77477 -188.013 1.01666 -180.131
lowerback 37.7482 -5.05995 4.14996
upperback 15.94 1.29785 -2.4004
thorax -1.07751 3.5623 -5.15289
lowerneck -19.1722 -0.361266 2.62699
upperneck -1.76427 -1.73968 -1.12607
head 2.74075 -1.23328 -1.00054
rclavicle 1.33186e-014 1.03368e-014
rhumerus 80.2035 -3.49623 -57.0418
rradius 19.5994
rwrist 22.7046
rhand -14.6922 11.1009
rfingers 7.12502
rthumb 11.4616 -18.5658
lclavicle 1.33186e-014 1.03368e-014
lhumerus 83.3607 -3.01811 58.4706
lradius 12.8057
lwrist -34.6765
lhand -33.0652 -8.79674
lfingers 7.12502
lthumb -6.27715 21.0903
rfemur 53.9045 -74.9192 -138.516
rtibia 153.718
rfoot -71.1491 49.5451
rtoes -34.6978
lfemur -78.6011 22.2895 -17.6523
ltibia 155.626
lfoot -37.7695 -9.87427
ltoes -37.8639
103
root 0.905988 8.19395 3.78294 -187.938 1.05435 -180.134
lowerback 37.8388 -5.09734 4.15126
upperback 16.0315 1.31358 -2.41325
thorax -1.00439 3.59616 -5.16877
lowerneck -18.8211 -0.360874 2.54707
upperneck -1.83548 -1.69943 -1.04185
head 2.65276 -1.20266 -0.948506
rclavicle 8.15017e-015 -1.78906e-014
rhumerus 80.0348 -3.36003 -57.9619
rradius 19.6133
rwrist 23.7557
rhand -14.5269 11.1606
rfingers 7.12502
rthumb 11.621 -18.4971
lclavicle 8.15017e-015 -1.78906e-014
lhumerus 83.0245 -3.1891 58.847
lradius 12.9282
lwrist -34.3883
lhand -32.8654 -9.08432
lfingers 7.12502
lthumb -6.08427 20.8083
rfemur 51.2184 -76.4233 -135.096
rtibia 153.296
rfoot -69.7907 49.677
rtoes -34.4697
lfemur -78.5094 22.2767 -17.9353
ltibia 155.23
lfoot -37.5246 -9.62563
ltoes -37.6566
104
root 0.904204 8.26805 3.79226 -187.794 1.07591 -180.124
lowerback 37.9239 -5.14567 4.18152
upperback 16.1061 1.31591 -2.42298
thorax -0.949254 3.6199 -5.1929
lowerneck -18.6579 -0.370476 2.42468
upperneck -1.8136 -1.67163 -0.95184
head 2.63194 -1.17851 -0.892277
rclavicle -6.75868e-015 -1.27222e-014
rhumerus 79.9014 -3.22138 -58.8001
rradius 19.585
rwrist 24.5704
rhand -14.3245 11.2366
rfingers 7.12502
rthumb 11.8162 -18.41
lclavicle -6.75868e-015 -1.27222e-014
lhumerus 82.8082 -3.3353 58.7333
lradius 12.8635
lwrist -33.8304
lhand -32.6676 -9.35884
lfingers 7.12502
lthumb -5.89333 20.5392
rfemur 46.8271 -78.2198 -129.782
rtibia 152.761
rfoot -68.1415 49.7227
rtoes -34.264
lfemur -78.4572 22.2496 -18.251
ltibia 154.719
lfoot -37.263 -9.33815
ltoes -37.6425
105
root 0.901395 8.35757 3.80361 -187.566 1.1029 -180.129
lowerback 38.0958 -5.18033 4.22347
upperback 16.0365 1.32265 -2.44883
thorax -0.926936 3.63661 -5.23958
lowerneck -18.6611 -0.368806 2.3931
upperneck -1.67902 -1.64938 -0.913437
head 2.68046 -1.15821 -0.873633
rclavicle 1.98785e-015 8.74653e-015
rhumerus 79.7402 -3.10378 -59.4277
rradius 19.557
rwrist 25.0717
rhand -14.0831 11.2865
rfingers 7.12502
rthumb 12.049 -18.3466
lclavicle 1.98785e-015 8.74653e-015
lhumerus 82.6581 -3.50858 58.3816
lradius 12.6885
lwrist -33.3393
lhand -32.4155 -9.50879
lfingers 7.12502
lthumb -5.64995 20.3959
rfemur 38.8933 -80.2974 -120.774
rtibia 152.105
rfoot -66.14 49.7415
rtoes -34.019
lfemur -78.465 22.2274 -18.638
ltibia 154.103
lfoot -36.9039 -9.10165
ltoes -37.4457
